<?xml version="1.0" encoding="iso-8859-1"?>
<!-- Generator: Adobe Illustrator 19.0.0, SVG Export Plug-In . SVG Version: 6.00 Build 0)  -->
<svg version="1.1" id="Capa_1" xmlns="http://www.w3.org/2000/svg" xmlns:xlink="http://www.w3.org/1999/xlink" x="0px" y="0px"
	 viewBox="0 0 512 512" style="enable-background:new 0 0 512 512;" xml:space="preserve">
<g>
	<g>
		<path d="M503.971,242.039l-121.055-89.303c-9.814-7.24-23.72-0.206-23.72,11.977v44.651h-29.768V44.651
			C329.429,20.031,309.398,0,284.777,0H46.637C22.063,0,1.986,20.027,1.986,44.651c0,13.702,0,324.373,0,343.264
			c0,14.963,7.433,28.852,19.884,37.152l119.07,79.38c29.642,19.762,69.42-1.572,69.42-37.152v-18.797h74.419
			c24.621,0,44.651-20.031,44.651-44.651V298.668h29.768v44.651c0,12.27,13.981,19.161,23.72,11.977l121.055-89.303
			C512.029,260.049,512.028,247.983,503.971,242.039z M157.452,479.678l-119.07-79.38c-4.151-2.767-6.628-7.397-6.628-12.384
			c0-4.22,0-287.54,0-343.264c0-1.834,0.349-3.583,0.958-5.206l137.171,68.586c4.885,2.442,10.708,6.95,10.708,14.553v344.711h0.001
			C180.592,479.194,167.359,486.285,157.452,479.678z M299.662,403.847c0,8.207-6.677,14.884-14.884,14.884H210.36V122.584
			c0-17.537-9.901-32.546-27.163-41.178L79.919,29.768h204.859c8.207,0,14.884,6.677,14.884,14.884v164.714h-44.651
			c-8.22,0-14.884,6.664-14.884,14.884v59.535c0,8.22,6.664,14.884,14.884,14.884h44.651V403.847z M388.965,313.843v-30.059
			c0-8.22-6.664-14.884-14.884-14.884H269.895v-29.768h104.186c8.22,0,14.884-6.664,14.884-14.884V194.19l81.099,59.827
			L388.965,313.843z"/>
	</g>
</g>
<g>
	<g>
		<path d="M135.941,209.365c-8.22,0-14.884,6.664-14.884,14.884v59.535c0,8.22,6.664,14.884,14.884,14.884
			c8.22,0,14.884-6.664,14.884-14.884v-59.535C150.824,216.029,144.16,209.365,135.941,209.365z"/>
	</g>
</g>
<g>
</g>
<g>
</g>
<g>
</g>
<g>
</g>
<g>
</g>
<g>
</g>
<g>
</g>
<g>
</g>
<g>
</g>
<g>
</g>
<g>
</g>
<g>
</g>
<g>
</g>
<g>
</g>
<g>
</g>
</svg>
