<?xml version="1.0" encoding="UTF-8" standalone="no"?>
<svg xmlns="http://www.w3.org/2000/svg" xmlns:xlink="http://www.w3.org/1999/xlink" style="isolation:isolate" viewBox="0 0 512 512" width="512pt" height="512pt"><defs><clipPath id="_clipPath_VVbfusegWYwX4mySEISL6P7G7Scm0dkn"><rect width="512" height="512"/></clipPath></defs><g clip-path="url(#_clipPath_VVbfusegWYwX4mySEISL6P7G7Scm0dkn)"><g><mask id="_mask_aBdGboTaE1GZrgArqc6aEHovbbh9kCgz"><path d=" M 476.718 333.584 C 493.19 310.214 502.457 283.866 502.457 256 C 502.457 159.803 392.023 81.704 256 81.704 C 119.977 81.704 9.543 159.803 9.543 256 C 9.543 352.197 119.977 430.296 256 430.296 C 306.706 430.296 353.856 419.443 393.056 400.846 L 438.039 412.955 L 502.457 430.296 L 485.944 368.248 L 476.718 333.584 Z " fill-rule="evenodd" fill="white" stroke="none"/></mask><path d=" M 476.718 333.584 C 493.19 310.214 502.457 283.866 502.457 256 C 502.457 159.803 392.023 81.704 256 81.704 C 119.977 81.704 9.543 159.803 9.543 256 C 9.543 352.197 119.977 430.296 256 430.296 C 306.706 430.296 353.856 419.443 393.056 400.846 L 438.039 412.955 L 502.457 430.296 L 485.944 368.248 L 476.718 333.584 Z " fill-rule="evenodd" fill="rgb(255,255,255)"/><path d=" M 476.718 333.584 C 493.19 310.214 502.457 283.866 502.457 256 C 502.457 159.803 392.023 81.704 256 81.704 C 119.977 81.704 9.543 159.803 9.543 256 C 9.543 352.197 119.977 430.296 256 430.296 C 306.706 430.296 353.856 419.443 393.056 400.846 L 438.039 412.955 L 502.457 430.296 L 485.944 368.248 L 476.718 333.584 Z " fill-rule="evenodd" fill="rgb(255,255,255)" mask="url(#_mask_aBdGboTaE1GZrgArqc6aEHovbbh9kCgz)" vector-effect="non-scaling-stroke" stroke-width="10" stroke="rgb(38,36,36)" stroke-linejoin="miter" stroke-linecap="square" stroke-miterlimit="3"/><g clip-path="url(#_clipPath_gFTCRwU5oZ0uDT9ON42VLIZNZJ3ulCJE)"><text transform="matrix(1.11,0,0,1.11,89.475,358.362)" style="font-family:'Overlock SC';font-weight:400;font-size:259px;font-style:normal;fill:#262424;stroke:none;">G+</text></g><defs><clipPath id="_clipPath_gFTCRwU5oZ0uDT9ON42VLIZNZJ3ulCJE"><rect x="0" y="0" width="300" height="315.98" transform="matrix(1.11,0,0,1.11,89.475,80.605)"/></clipPath></defs></g></g></svg>